<svg xmlns="http://www.w3.org/2000/svg" viewBox="0 0 24 24" fill="#ffffff" aria-hidden="true">
  <path d="M20.5 3.5A11.85 11.85 0 0 0 12.06 0C5.54 0 .24 5.3.24 11.82a11.8 11.8 0 0 0 1.59 5.93L0 24l6.42-1.68a11.78 11.78 0 0 0 5.63 1.43h.01c6.52 0 11.82-5.3 11.82-11.82A11.77 11.77 0 0 0 20.5 3.5Zm-8.44 18.2h-.01a9.8 9.8 0 0 1-5-1.37l-.36-.21-3.81 1 1.02-3.71-.24-.38a9.76 9.76 0 0 1-1.5-5.2c0-5.42 4.41-9.83 9.83-9.83a9.8 9.8 0 0 1 6.95 2.88 9.77 9.77 0 0 1 2.88 6.95c0 5.42-4.41 9.83-9.82 9.83Zm5.39-7.35c-.3-.15-1.76-.87-2.04-.97-.27-.1-.46-.15-.66.15-.2.3-.76.97-.93 1.17-.17.2-.34.22-.64.07-.3-.15-1.25-.46-2.38-1.46-.88-.78-1.48-1.74-1.65-2.04-.17-.3-.02-.46.13-.61.13-.13.3-.34.45-.51.15-.17.2-.29.3-.49.1-.2.05-.37-.02-.51-.07-.15-.66-1.6-.9-2.2-.24-.57-.48-.49-.66-.5h-.56c-.2 0-.51.07-.78.37-.27.3-1.02 1-.98 2.44.03 1.44 1.03 2.83 1.18 3.03.15.2 2.03 3.1 4.93 4.34.69.3 1.24.48 1.66.61.7.22 1.34.19 1.84.12.56-.08 1.76-.72 2.01-1.42.25-.7.25-1.3.17-1.42-.08-.12-.27-.2-.57-.35Z"/>
</svg>
